<?xml version="1.0" encoding="utf-8"?>
<?xml-stylesheet type="text/xsl" href="rss1.xsl"?>
<rss version="2.0" xmlns:atom="http://www.w3.org/2005/Atom" xmlns:content="http://purl.org/rss/1.0/modules/content/" xmlns:dc="http://purl.org/dc/elements/1.1/" xmlns:media="http://search.yahoo.com/mrss/">
<channel>
 <title>Getty</title>
 <link>http://www.gettyimg.com/</link>
 <atom:link href="http://www.gettyimg.com/" rel="self" type="application/rss+xml" />

 
                <item>
                <title><![CDATA[【HD Live Performances】HDTV - Macy's 4th of July Fireworks 2024 HDTV MPEG2 1080i DD5.1-ilya2129]]></title>
                <link><![CDATA[https://sharemania.us/threads/macys-4th-of-july-fireworks-2024-hdtv-mpeg2-1080i-dd5-1-ilya2129.248848/]]></link>
                <description><![CDATA[<article>
<blockquote class="messageText SelectQuoteContainer ugc baseHtml">
<div style="text-align: center"><img src="https://i123.fastpic.org/big/2024/0705/4f/d56e51d4bc5008f86675e09610f91b4f.png?r=1" class="bbCodeImage LbImage" alt="[​IMG]" data-url="https://i123.fastpic.org/big/2024/0705/4f/d56e51d4bc5008f86675e09610f91b4f.png?r=1" style=""><br>
<br>
<a href="https://fastpic.org/view/123/2024/0705/_7c601b6a3f5637c74f9bb895914d551f.png.html" target="_blank" class="externalLink" rel="nofollow"><img src="https://i123.fastpic.org/thumb/2024/0705/1f/_7c601b6a3f5637c74f9bb895914d551f.jpeg" class="bbCodeImage LbImage" alt="[​IMG]" data-url="https://i123.fastpic.org/thumb/2024/0705/1f/_7c601b6a3f5637c74f9bb895914d551f.jpeg"></a> <a href="https://fastpic.org/view/123/2024/0705/_582e84d273350266ab43f9ae354e136b.png.html" target="_blank" class="externalLink" rel="nofollow"><img src="https://i123.fastpic.org/thumb/2024/0705/6b/_582e84d273350266ab43f9ae354e136b.jpeg" class="bbCodeImage LbImage" alt="[​IMG]" data-url="https://i123.fastpic.org/thumb/2024/0705/6b/_582e84d273350266ab43f9ae354e136b.jpeg"></a> <a href="https://fastpic.org/view/123/2024/0705/_d3cfb79d5861cddf4dface7e6e9e37b3.png.html" target="_blank" class="externalLink" rel="nofollow"><img src="https://i123.fastpic.org/thumb/2024/0705/b3/_d3cfb79d5861cddf4dface7e6e9e37b3.jpeg" class="bbCodeImage LbImage" alt="[​IMG]" data-url="https://i123.fastpic.org/thumb/2024/0705/b3/_d3cfb79d5861cddf4dface7e6e9e37b3.jpeg"></a> <a href="https://fastpic.org/view/123/2024/0705/_2290463b78d273b8b7f9f481fb743d2d.png.html" target="_blank" class="externalLink" rel="nofollow"><img src="https://i123.fastpic.org/thumb/2024/0705/2d/_2290463b78d273b8b7f9f481fb743d2d.jpeg" class="bbCodeImage LbImage" alt="[​IMG]" data-url="https://i123.fastpic.org/thumb/2024/0705/2d/_2290463b78d273b8b7f9f481fb743d2d.jpeg"></a> <a href="https://fastpic.org/view/123/2024/0705/_e2127549fedec01b9868db240119b3be.png.html" target="_blank" class="externalLink" rel="nofollow"><img src="https://i123.fastpic.org/thumb/2024/0705/be/_e2127549fedec01b9868db240119b3be.jpeg" class="bbCodeImage LbImage" alt="[​IMG]" data-url="https://i123.fastpic.org/thumb/2024/0705/be/_e2127549fedec01b9868db240119b3be.jpeg"></a> <a href="https://fastpic.org/view/123/2024/0705/_1313ba0530965fbe37314073cae1c63d.png.html" target="_blank" class="externalLink" rel="nofollow"><img src="https://i123.fastpic.org/thumb/2024/0705/3d/_1313ba0530965fbe37314073cae1c63d.jpeg" class="bbCodeImage LbImage" alt="[​IMG]" data-url="https://i123.fastpic.org/thumb/2024/0705/3d/_1313ba0530965fbe37314073cae1c63d.jpeg"></a> <a href="https://fastpic.org/view/123/2024/0705/_1f0dd0298a6010e7a27dfc7280d6103a.png.html" target="_blank" class="externalLink" rel="nofollow"><img src="https://i123.fastpic.org/thumb/2024/0705/3a/_1f0dd0298a6010e7a27dfc7280d6103a.jpeg" class="bbCodeImage LbImage" alt="[​IMG]" data-url="https://i123.fastpic.org/thumb/2024/0705/3a/_1f0dd0298a6010e7a27dfc7280d6103a.jpeg"></a><br>
<br>
<i><br>
Aisha Jackson, Alex Newell, Ashley Loren, Luis Fonsi, Lainey Wilson, Mark Ambor, Mickey Guyton, Tanner Adell, The War and Treaty, Bell Biv DeVoe, Shaboozey<br>
</i><br>
​</div><br>
<div class="bbCodeBlock bbCodeCode">
<div class="type">Code:</div>
<pre>General
ID                                       : 1 (0x1)
Complete name                            : C:\Recordings\Macy's 4th of July Fireworks 2024 HDTV MPEG2 1080i DD5.1-ilya2129.ts
Format                                   : MPEG-TS
File size                                : 8.58 GiB
Duration                                 : 1 h 14 min
Overall bit rate mode                    : Variable
Overall bit rate                         : 16.4 Mb/s
Frame rate                               : 29.970 FPS
Movie name                               : AMERICA'S GOT TALENT
Law rating                               : TV-PG (DL)

Video
ID                                       : 302 (0x12E)
Menu ID                                  : 1 (0x1)
Format                                   : MPEG Video
Format version                           : Version 2
Format profile                           : Main@High
Format settings                          : CustomMatrix / BVOP
Format settings, BVOP                    : Yes
Format settings, Matrix                  : Custom
Format settings, GOP                     : Variable
Format settings, picture structure       : Frame
Codec ID                                 : 2
Duration                                 : 1 h 14 min
Bit rate mode                            : Variable
Bit rate                                 : 15.1 Mb/s
Maximum bit rate                         : 17.5 Mb/s
Width                                    : 1 920 pixels
Height                                   : 1 080 pixels
Display aspect ratio                     : 16:9
Active Format Description                : Full frame 16:9 image
Frame rate                               : 29.970 (30000/1001) FPS
Color space                              : YUV
Chroma subsampling                       : 4:2:0
Bit depth                                : 8 bits
Scan type                                : Interlaced
Scan order                               : Top Field First
Compression mode                         : Lossy
Bits/(Pixel*Frame)                       : 0.243
Time code of first frame                 : 06:33:28;12
Time code source                         : Group of pictures header
GOP, Open/Closed                         : Open
GOP, Open/Closed of first frame          : Closed
Stream size                              : 7.88 GiB (92%)

Audio #1
ID                                       : 303 (0x12F)
Menu ID                                  : 1 (0x1)
Format                                   : AC-3
Format/Info                              : Audio Coding 3
Commercial name                          : Dolby Digital
Codec ID                                 : 129
Duration                                 : 1 h 14 min
Bit rate mode                            : Constant
Bit rate                                 : 384 kb/s
Channel(s)                               : 6 channels
Channel layout                           : L R C LFE Ls Rs
Sampling rate                            : 48.0 kHz
Frame rate                               : 31.250 FPS (1536 SPF)
Compression mode                         : Lossy
Delay relative to video                  : 15 ms
Stream size                              : 206 MiB (2%)
Language                                 : English
Service kind                             : Complete Main

Audio #2
ID                                       : 304 (0x130)
Menu ID                                  : 1 (0x1)
Format                                   : AC-3
Format/Info                              : Audio Coding 3
Commercial name                          : Dolby Digital
Codec ID                                 : 129
Duration                                 : 1 h 14 min
Bit rate mode                            : Constant
Bit rate                                 : 128 kb/s
Channel(s)                               : 2 channels
Channel layout                           : L R
Sampling rate                            : 48.0 kHz
Frame rate                               : 31.250 FPS (1536 SPF)
Compression mode                         : Lossy
Delay relative to video                  : 15 ms
Stream size                              : 68.5 MiB (1%)
Language                                 : Spanish
Service kind                             : Complete Main

Text #1
ID                                       : 302 (0x12E)-CC1
Menu ID                                  : 1 (0x1)
Format                                   : EIA-608
Muxing mode                              : A/53 / DTVCC Transport
Muxing mode, more info                   : Muxed in Video #1
Duration                                 : 1 h 14 min
Duration of the visible content          : 1 h 14 min
Start time (commands)                    : 9 s 355 ms
Start time                               : 9 s 388 ms
End time                                 : 1 h 14 min
Bit rate mode                            : Constant
Stream size                              : 0.00 Byte (0%)
Type of the first event                  : RollUp

Text #2
ID                                       : 302 (0x12E)-CC3
Menu ID                                  : 1 (0x1)
Format                                   : EIA-608
Muxing mode                              : A/53 / DTVCC Transport
Muxing mode, more info                   : Muxed in Video #1
Duration                                 : 1 h 14 min
Start time (commands)                    : 3 s 215 ms
End time                                 : 1 h 14 min
Bit rate mode                            : Constant
Stream size                              : 0.00 Byte (0%)
Type of the first event                  : PaintOn

Text #3
ID                                       : 302 (0x12E)-1
Menu ID                                  : 1 (0x1)
Format                                   : EIA-708
Muxing mode                              : A/53 / DTVCC Transport
Muxing mode, more info                   : Muxed in Video #1
Duration                                 : 1 h 14 min
Bit rate mode                            : Constant
Stream size                              : 0.00 Byte (0%)

Text #4
ID                                       : 302 (0x12E)-2
Menu ID                                  : 1 (0x1)
Format                                   : EIA-708
Muxing mode                              : A/53 / DTVCC Transport
Muxing mode, more info                   : Muxed in Video #1
Duration                                 : 1 h 14 min
Bit rate mode                            : Constant
Stream size                              : 0.00 Byte (0%)

Text #5
ID                                       : 302 (0x12E)-3
Menu ID                                  : 1 (0x1)
Format                                   : EIA-708
Muxing mode                              : A/53 / DTVCC Transport
Muxing mode, more info                   : Muxed in Video #1
Duration                                 : 1 h 14 min
Bit rate mode                            : Constant
Stream size                              : 0.00 Byte (0%)

Text #6
ID                                       : 302 (0x12E)-4
Menu ID                                  : 1 (0x1)
Format                                   : EIA-708
Muxing mode                              : A/53 / DTVCC Transport
Muxing mode, more info                   : Muxed in Video #1
Duration                                 : 1 h 14 min
Bit rate mode                            : Constant
Stream size                              : 0.00 Byte (0%)

Text #7
ID                                       : 302 (0x12E)-5
Menu ID                                  : 1 (0x1)
Format                                   : EIA-708
Muxing mode                              : A/53 / DTVCC Transport
Muxing mode, more info                   : Muxed in Video #1
Duration                                 : 1 h 14 min
Bit rate mode                            : Constant
Stream size                              : 0.00 Byte (0%)

Text #8
ID                                       : 302 (0x12E)-6
Menu ID                                  : 1 (0x1)
Format                                   : EIA-708
Muxing mode                              : A/53 / DTVCC Transport
Muxing mode, more info                   : Muxed in Video #1
Duration                                 : 1 h 14 min
Bit rate mode                            : Constant
Stream size                              : 0.00 Byte (0%)

</pre>
</div>
<div class="bbCodeBlock bbCodeVfcHH HiddenContent">
<div class="attribution type">Hidden Content:</div>
<blockquote>You must reply before you can see the hidden data contained here.</blockquote>
</div>
<div class="messageTextEndMarker">&nbsp;</div>
</blockquote>
</article>]]></description>
                <author><![CDATA[ilya2129]]></author>
                </item>

                
                <item>
                <title><![CDATA[【HD Live Performances】HDTV - CNN The Fourth In America 2024 HDTV MPEG2 1080i DD5.1-ilya2129]]></title>
                <link><![CDATA[https://sharemania.us/threads/cnn-the-fourth-in-america-2024-hdtv-mpeg2-1080i-dd5-1-ilya2129.248847/]]></link>
                <description><![CDATA[<article>
<blockquote class="messageText SelectQuoteContainer ugc baseHtml">
<div style="text-align: center"><img src="https://i122.fastpic.org/big/2023/0710/c4/f7dbce88ac8d345a73f4f8ea5948e1c4.png?r=1" class="bbCodeImage LbImage" alt="[​IMG]" data-url="https://i122.fastpic.org/big/2023/0710/c4/f7dbce88ac8d345a73f4f8ea5948e1c4.png?r=1" style=""><br>
<br>
<a href="https://fastpic.org/view/123/2024/0705/_b98b9ce3aadb672260718cf57c96a638.png.html" target="_blank" class="externalLink" rel="nofollow"><img src="https://i123.fastpic.org/thumb/2024/0705/38/_b98b9ce3aadb672260718cf57c96a638.jpeg" class="bbCodeImage LbImage" alt="[​IMG]" data-url="https://i123.fastpic.org/thumb/2024/0705/38/_b98b9ce3aadb672260718cf57c96a638.jpeg"></a> <a href="https://fastpic.org/view/123/2024/0705/_80929bd6181ac1aed5a5cba65194f1cb.png.html" target="_blank" class="externalLink" rel="nofollow"><img src="https://i123.fastpic.org/thumb/2024/0705/cb/_80929bd6181ac1aed5a5cba65194f1cb.jpeg" class="bbCodeImage LbImage" alt="[​IMG]" data-url="https://i123.fastpic.org/thumb/2024/0705/cb/_80929bd6181ac1aed5a5cba65194f1cb.jpeg"></a> <a href="https://fastpic.org/view/123/2024/0705/_558caaf453315239ce5f4941a6f16390.png.html" target="_blank" class="externalLink" rel="nofollow"><img src="https://i123.fastpic.org/thumb/2024/0705/90/_558caaf453315239ce5f4941a6f16390.jpeg" class="bbCodeImage LbImage" alt="[​IMG]" data-url="https://i123.fastpic.org/thumb/2024/0705/90/_558caaf453315239ce5f4941a6f16390.jpeg"></a> <a href="https://fastpic.org/view/123/2024/0705/_17c2d26ab79b9c8dd3c9564d3ad08ebb.png.html" target="_blank" class="externalLink" rel="nofollow"><img src="https://i123.fastpic.org/thumb/2024/0705/bb/_17c2d26ab79b9c8dd3c9564d3ad08ebb.jpeg" class="bbCodeImage LbImage" alt="[​IMG]" data-url="https://i123.fastpic.org/thumb/2024/0705/bb/_17c2d26ab79b9c8dd3c9564d3ad08ebb.jpeg"></a> <a href="https://fastpic.org/view/123/2024/0705/_74be889cd3b447e028f85cee26d51388.png.html" target="_blank" class="externalLink" rel="nofollow"><img src="https://i123.fastpic.org/thumb/2024/0705/88/_74be889cd3b447e028f85cee26d51388.jpeg" class="bbCodeImage LbImage" alt="[​IMG]" data-url="https://i123.fastpic.org/thumb/2024/0705/88/_74be889cd3b447e028f85cee26d51388.jpeg"></a> <a href="https://fastpic.org/view/123/2024/0705/_5819fbcb6404813fda7af87ecd43e554.png.html" target="_blank" class="externalLink" rel="nofollow"><img src="https://i123.fastpic.org/thumb/2024/0705/54/_5819fbcb6404813fda7af87ecd43e554.jpeg" class="bbCodeImage LbImage" alt="[​IMG]" data-url="https://i123.fastpic.org/thumb/2024/0705/54/_5819fbcb6404813fda7af87ecd43e554.jpeg"></a><br>
<br>
<i><br>
This year, the Fourth of July won’t just feature fireworks — the sky will also be lit up with dozens of music’s biggest stars.<br>
As revealed exclusively to Billboard on Tuesday (June 18), The Kid LAROI, Bebe Rexha, The Killers and more will perform on CNN’s The Fourth in America special, airing at 7 p.m. ET across the network’s channels on July 4. Celebrating the 248th anniversary of the country’s independence, its lineup will also include Goo Goo Dolls, Kane Brown, T-Pain, Bleachers, Keith Urban, Ashanti, Chris Young, Yellowcard, Ben Platt, Boys Like Girls, REO Speedwagon and En Vogue, as well as an ensemble performance by The United States Air Force Band.<br>
</i><br>
​</div><br>
<div class="bbCodeBlock bbCodeCode">
<div class="type">Code:</div>
<pre>General
ID                                       : 1 (0x1)
Complete name                            : C:\Recordings\CNN The Fourth In America 2024 HDTV MPEG2 1080i DD5.1-ilya2129.ts
Format                                   : MPEG-TS
File size                                : 25.8 GiB
Duration                                 : 4 h 15 min
Overall bit rate mode                    : Variable
Overall bit rate                         : 14.5 Mb/s
Frame rate                               : 29.970 FPS
Law rating                               : None

Video
ID                                       : 101 (0x65)
Menu ID                                  : 1 (0x1)
Format                                   : MPEG Video
Format version                           : Version 2
Format profile                           : Main@High
Format settings                          : CustomMatrix / BVOP
Format settings, BVOP                    : Yes
Format settings, Matrix                  : Custom
Format settings, GOP                     : Variable
Format settings, picture structure       : Frame
Codec ID                                 : 2
Duration                                 : 4 h 15 min
Bit rate mode                            : Variable
Bit rate                                 : 13.4 Mb/s
Maximum bit rate                         : 14.7 Mb/s
Width                                    : 1 920 pixels
Height                                   : 1 080 pixels
Display aspect ratio                     : 16:9
Active Format Description                : Full frame 16:9 image
Frame rate                               : 29.970 (30000/1001) FPS
Color space                              : YUV
Chroma subsampling                       : 4:2:0
Bit depth                                : 8 bits
Scan type                                : Interlaced
Scan order                               : Top Field First
Compression mode                         : Lossy
Bits/(Pixel*Frame)                       : 0.215
Time code of first frame                 : 13:40:17;15
Time code source                         : Group of pictures header
GOP, Open/Closed                         : Open
GOP, Open/Closed of first frame          : Closed
Stream size                              : 23.9 GiB (92%)

Audio
ID                                       : 102 (0x66)
Menu ID                                  : 1 (0x1)
Format                                   : AC-3
Format/Info                              : Audio Coding 3
Commercial name                          : Dolby Digital
Codec ID                                 : 129
Duration                                 : 4 h 15 min
Bit rate mode                            : Constant
Bit rate                                 : 384 kb/s
Channel(s)                               : 6 channels
Channel layout                           : L R C LFE Ls Rs
Sampling rate                            : 48.0 kHz
Frame rate                               : 31.250 FPS (1536 SPF)
Compression mode                         : Lossy
Delay relative to video                  : 25 ms
Stream size                              : 703 MiB (3%)
Language                                 : English
Service kind                             : Complete Main

Text #1
ID                                       : 101 (0x65)-CC1
Menu ID                                  : 1 (0x1)
Format                                   : EIA-608
Muxing mode                              : A/53 / DTVCC Transport
Muxing mode, more info                   : Muxed in Video #1
Duration                                 : 4 h 15 min
Duration of the visible content          : 4 h 15 min
Start time (commands)                    : 10 s 422 ms
Start time                               : 10 s 489 ms
End time                                 : 4 h 15 min
Bit rate mode                            : Constant
Stream size                              : 0.00 Byte (0%)
Type of the first event                  : RollUp

Text #2
ID                                       : 101 (0x65)-1
Menu ID                                  : 1 (0x1)
Format                                   : EIA-708
Muxing mode                              : A/53 / DTVCC Transport
Muxing mode, more info                   : Muxed in Video #1
Duration                                 : 4 h 15 min
Bit rate mode                            : Constant
Stream size                              : 0.00 Byte (0%)

Text #3
ID                                       : 101 (0x65)-CC1
Menu ID                                  : 1 (0x1)
Format                                   : EIA-608
Muxing mode                              : SCTE 20
Muxing mode, more info                   : Muxed in Video #1
Duration                                 : 4 h 15 min
Duration of the visible content          : 4 h 15 min
Start time (commands)                    : 10 s 422 ms
Start time                               : 10 s 489 ms
End time                                 : 4 h 15 min
Bit rate mode                            : Constant
Stream size                              : 0.00 Byte (0%)
Type of the first event                  : RollUp
</pre>
</div>
<div class="bbCodeBlock bbCodeVfcHH HiddenContent">
<div class="attribution type">Hidden Content:</div>
<blockquote>You must reply before you can see the hidden data contained here.</blockquote>
</div>
<div class="messageTextEndMarker">&nbsp;</div>
</blockquote>
</article>]]></description>
                <author><![CDATA[ilya2129]]></author>
                </item>

                
                <item>
                <title><![CDATA[【Music Videos】Jungle - Back on 74 [4K Vm | HEVC 10-bit | PCM 24-bit]]]></title>
                <link><![CDATA[https://sharemania.us/threads/jungle-back-on-74-4k-vm-hevc-10-bit-pcm-24-bit.248850/]]></link>
                <description><![CDATA[<article>
<blockquote class="messageText SelectQuoteContainer ugc baseHtml">
thanks for bebe <img src="styles/default/xenforo/smilies/big_smile-48.png" class="mceSmilie" alt=":)" title="Smile    :)">
<div class="messageTextEndMarker">&nbsp;</div>
</blockquote>
</article>]]></description>
                <author><![CDATA[ADHDerby]]></author>
                </item>

                
                <item>
                <title><![CDATA[【HD Live Performances】HDTV - Kesha - Live @ NBC 10 4th of July Concert HDTV MPEG2 1080i DD5.1-ilya2129]]></title>
                <link><![CDATA[https://sharemania.us/threads/kesha-live-nbc-10-4th-of-july-concert-hdtv-mpeg2-1080i-dd5-1-ilya2129.248849/]]></link>
                <description><![CDATA[<article>
<blockquote class="messageText SelectQuoteContainer ugc baseHtml">
thanks for bebe <img src="styles/default/xenforo/smilies/big_smile-48.png" class="mceSmilie" alt=":)" title="Smile    :)">
<div class="messageTextEndMarker">&nbsp;</div>
</blockquote>
</article>]]></description>
                <author><![CDATA[ilya2129]]></author>
                </item>

                
                <item>
                <title><![CDATA[【Requests】[REQ AUD] - (ALAC) SCARS - The Album/Next Episode]]></title>
                <link><![CDATA[https://sharemania.us/threads/alac-scars-the-album-next-episode.248852/]]></link>
                <description><![CDATA[<article>
<blockquote class="messageText SelectQuoteContainer ugc baseHtml">
Thank you
<div class="messageTextEndMarker">&nbsp;</div>
</blockquote>
</article>]]></description>
                <author><![CDATA[DORAEMON]]></author>
                </item>

                
                <item>
                <title><![CDATA[【Music Videos】Karol G - Si Antes Te Hubiera Conocido [4K Vm | HEVC 10-bit | PCM 24-bit 48 kHz | DD+ Dolby Atmos]]]></title>
                <link><![CDATA[https://sharemania.us/threads/karol-g-si-antes-te-hubiera-conocido-4k-vm-hevc-10-bit-pcm-24-bit-48-khz-dd-dolby-atmos.248851/]]></link>
                <description><![CDATA[<article>
<blockquote class="messageText SelectQuoteContainer ugc baseHtml">
<b><img src="https://images2.imgbox.com/62/eb/3Blm4LXV_o.jpg" class="bbCodeImage LbImage" alt="[​IMG]" data-url="https://images2.imgbox.com/62/eb/3Blm4LXV_o.jpg" style=""> <br>
<br>
Genre: <span style="color: #0059b3">Electronic, Funk / Soul, Pop</span><br>
Style: <span style="color: #0059b3">Neo Soul, Funk, Indie Pop</span><br>
Year: <span style="color: #0059b3">2023</span><br>
Video Source: <span style="color: #0059b3">Vimeo</span><br>
Audio Source: <span style="color: #0059b3">Qobuz</span></b><br>
<br>
"<b>Back on 74</b>" is a song by the British band Jungle, released as the fourth and final single from their album <i>Volcano</i> on 28 July 2023 through Caiola and AWAL. It was written by Jungle members Josh Lloyd and Thomas McFarland and their newest member Lydia Kitto, and produced by Lloyd. It reached the top 40 in the UK and New Zealand. The track and its video went viral on TikTok in late 2023 and early 2024, which was also aided by a performance at the 2024 Brit Awards. The track was later nominated for the Best Contemporary Song Ivor Novello Award on Thursday 23rd May 2024.<br>
<br>
Josh Lloyd said the track was written about a fictional place where one grew up and has "fond memories" of: "74 is a fictitious thing, but for us it's like 74th Avenue or 74th Street or something, where, in your imagination or as a kid, you were playing out on the street. You've gone back to this place and it's giving you this really nostalgic feeling but everything's not quite the same."<br>
<br>
An interactive video for the song directed by Josh Lloyd and Charlie Di Placido was released in July 2023, which was released in standard form on YouTube the following month. The video was choreographed by the Dutch dancer Shay Latukolan.<br>
<br>
<b>Release Info</b><br>
The video track is downloaded from Vimeo (2160p) and encoded to HEVC 10-bit.<br>
The PCM track is downloaded from Qobuz (24-bit), synced with Adobe Audition.<br>
The timed lyrics are synced and edited. Enable the subtitles to see the lyrics.<br>
<br>
<div class="ToggleTriggerAnchor bbCodeSpoilerContainer">
<button type="button" class="button bbCodeSpoilerButton ToggleTrigger Tooltip JsOnly" data-target="> .SpoilerTarget"><span>Spoiler: <span class="SpoilerTitle">Media Info</span></span></button>
<div class="SpoilerTarget bbCodeSpoilerText">
<div class="bbCodeBlock bbCodeCode">
<div class="type">Code:</div>
<pre>General

Unique ID                      : 226255348142324543006957310922041707119 (0xAA3731EBF2468C35E706F02CBD9DCA6F)
Complete name                  : Jungle - Back On 74.mkv
Format                         : Matroska
Format version                 : Version 4 / Version 2
File size                      : 632 MiB
Duration                       : 4 min 0 s
Overall bit rate               : 22.1 Mb/s
Frame rate                     : 25.000 FPS
Encoded date                   : 2024-07-03 07:30:23 UTC
Writing application            : mkvmerge v85.0 ('Shame For You') 64-bit
Writing library                : libebml v1.4.5 + libmatroska v1.7.1

Video
ID                             : 1
Format                         : HEVC
Format/Info                    : High Efficiency Video Coding
Format profile                 : Main 10@L5@Main
Codec ID                       : V_MPEGH/ISO/HEVC
Duration                       : 4 min 0 s
Bit rate                       : 19.7 Mb/s
Width                          : 3 840 pixels
Height                         : 2 160 pixels
Display aspect ratio           : 16:9
Frame rate mode                : Constant
Frame rate                     : 25.000 FPS
Color space                    : YUV
Chroma subsampling             : 4:2:0
Bit depth                      : 10 bits
Bits/(Pixel*Frame)             : 0.095
Stream size                    : 566 MiB (90%)
Default                        : Yes
Forced                         : No
Color range                    : Limited
Color primaries                : BT.709
Transfer characteristics       : BT.709
Matrix coefficients            : BT.709

Audio #1
ID                             : 2
Format                         : PCM
Format settings                : Little / Signed
Codec ID                       : A_PCM/INT/LIT
Duration                       : 4 min 0 s
Bit rate mode                  : Constant
Bit rate                       : 2 117 kb/s
Channel(s)                     : 2 channels
Sampling rate                  : 44.1 kHz
Frame rate                     : 25.000 FPS (1764 SPF)
Bit depth                      : 24 bits
Stream size                    : 60.7 MiB (10%)
Title                          : Lossless 24-bit
Language                       : English
Default                        : Yes
Forced                         : No

Audio #2
ID                             : 3
Format                         : AAC LC
Format/Info                    : Advanced Audio Codec Low Complexity
Codec ID                       : A_AAC-2
Duration                       : 4 min 0 s
Bit rate                       : 192 kb/s
Channel(s)                     : 2 channels
Channel layout                 : L R
Sampling rate                  : 48.0 kHz
Frame rate                     : 46.875 FPS (1024 SPF)
Compression mode               : Lossy
Stream size                    : 5.43 MiB (1%)
Title                          : Original
Language                       : English
Default                        : No
Forced                         : No

Text
ID                             : 4
Format                         : UTF-8
Codec ID                       : S_TEXT/UTF8
Codec ID/Info                  : UTF-8 Plain Text
Duration                       : 2 min 46 s
Bit rate                       : 64 b/s
Frame rate                     : 0.318 FPS
Count of elements              : 53
Stream size                    : 1.31 KiB (0%)
Title                          : Lyrics
Language                       : English
Default                        : No
Forced                         : No
</pre>
</div></div>
</div><br>
<b>Note to the peeps @ RuTracker: Give credit if you post the work of someone else!</b><br>
- Hurby4 aka ADHDerby<br>
<br>
<div class="bbCodeBlock bbCodeVfcHH HiddenContent">
<div class="attribution type">Hidden Content:</div>
<blockquote>You must reply before you can see the hidden data contained here.</blockquote>
</div>
<div class="messageTextEndMarker">&nbsp;</div>
</blockquote>
</article>]]></description>
                <author><![CDATA[ADHDerby]]></author>
                </item>

                </channel></rss>